<svg xmlns="http://www.w3.org/2000/svg" viewBox="0 0 512 512" role="img" aria-label="NEXSET app icon">
  <defs>
    <linearGradient id="bg" x1="0" y1="0" x2="1" y2="1"><stop stop-color="#0D141F"/><stop offset="1" stop-color="#02050A"/></linearGradient>
    <radialGradient id="halo" cx="50%" cy="40%" r="72%"><stop stop-color="#087CFF" stop-opacity=".12"/><stop offset="1" stop-color="#087CFF" stop-opacity="0"/></radialGradient>
    <linearGradient id="blue" x1="0" y1="0" x2=".82" y2="1"><stop stop-color="#28C2FF"/><stop offset=".38" stop-color="#0788FF"/><stop offset="1" stop-color="#0049E6"/></linearGradient>
    <linearGradient id="edge" x1="0" y1="0" x2="1" y2="1"><stop stop-color="#A0EBFF" stop-opacity=".7"/><stop offset=".58" stop-color="#087CFF" stop-opacity=".08"/><stop offset="1" stop-color="#001B74" stop-opacity=".6"/></linearGradient>
    <filter id="shadow" x="-30%" y="-30%" width="160%" height="160%"><feDropShadow dx="0" dy="14" stdDeviation="13" flood-color="#0068FF" flood-opacity=".28"/></filter>
  </defs>
  <rect x="8" y="8" width="496" height="496" rx="112" fill="url(#bg)"/>
  <rect x="8.5" y="8.5" width="495" height="495" rx="111.5" fill="none" stroke="#FFFFFF" stroke-opacity=".1"/>
  <rect x="8" y="8" width="496" height="496" rx="112" fill="url(#halo)"/>
  <g filter="url(#shadow)" transform="translate(26 28) scale(.90)">
    <path d="M111 172 176 226v177h-65Z" fill="url(#blue)"/>
    <path d="M338 109h65v195l-65-55Z" fill="url(#blue)"/>
    <path d="M80 109h100l252 294H332Z" fill="url(#blue)"/>
    <path d="M82 111h96l250 290" fill="none" stroke="url(#edge)" stroke-width="4" opacity=".65"/>
  </g>
</svg>
