<svg xmlns="http://www.w3.org/2000/svg" viewBox="0 0 280 360" role="img" aria-label="Stylized strength-training figure">
  <defs>
    <linearGradient id="steel" x1="0" y1="0" x2="1" y2="1"><stop stop-color="#273341"/><stop offset="1" stop-color="#0B1017"/></linearGradient>
    <linearGradient id="blue" x1="0" y1="0" x2="0" y2="1"><stop stop-color="#28C6FF"/><stop offset=".42" stop-color="#0B85FF"/><stop offset="1" stop-color="#0049D7"/></linearGradient>
    <filter id="blueGlow" x="-40%" y="-40%" width="180%" height="180%"><feGaussianBlur stdDeviation="7" result="b"/><feMerge><feMergeNode in="b"/><feMergeNode in="SourceGraphic"/></feMerge></filter>
    <filter id="shadow" x="-40%" y="-30%" width="180%" height="180%"><feDropShadow dx="0" dy="12" stdDeviation="10" flood-color="#000" flood-opacity=".65"/></filter>
  </defs>
  <g filter="url(#shadow)">
    <path d="M117 27c8-10 38-10 46 0l8 27-9 30h-44l-9-30Z" fill="url(#steel)" stroke="#425269" stroke-width="2"/>
    <path d="M105 70 67 84 29 123 45 178l42-21 17-30 9 53-18 123h90l-18-123 9-53 17 30 42 21 16-55-37-39-39-14-19 21h-32Z" fill="url(#steel)" stroke="#36465B" stroke-width="2"/>
    <path d="M67 84 28 123 15 197l25 10 26-50 24-29-9-30Z" fill="#101821" stroke="#334155" stroke-width="2"/>
    <path d="m213 84 39 39 13 74-25 10-26-50-24-29 9-30Z" fill="#101821" stroke="#334155" stroke-width="2"/>
    <path d="M91 88c11-12 29-15 47-9v62c-23 3-43-5-57-25Z" fill="url(#blue)" filter="url(#blueGlow)" stroke="#66D1FF" stroke-opacity=".5"/>
    <path d="M189 88c-11-12-29-15-47-9v62c23 3 43-5 57-25Z" fill="url(#blue)" filter="url(#blueGlow)" stroke="#66D1FF" stroke-opacity=".5"/>
    <path d="M112 148h25v39h-31Zm31 0h25l6 39h-31Zm-39 47h33v42h-39Zm39 0h33l6 42h-39Zm-47 51h41v48H89Zm47 0h41l7 48h-48Z" fill="#121B26" stroke="#35465D" stroke-width="2"/>
    <path d="M140 78v216M92 88c16 10 31 14 48 14s32-4 48-14" fill="none" stroke="#79CFFF" stroke-opacity=".26" stroke-width="2"/>
    <path d="M55 190 88 160m137 30-33-30M111 59h58" fill="none" stroke="#5A6A7D" stroke-width="2" stroke-linecap="round"/>
  </g>
</svg>